<svg id="Capa_1" enable-background="new 0 0 512 512" height="512" viewBox="0 0 512 512" width="512" xmlns="http://www.w3.org/2000/svg"><g><path d="m157.648 86.558-36.656 36.656c-1.953 1.953-1.953 5.118 0 7.071l8.954 8.954c1.953 1.953 5.119 1.953 7.071 0l38.439-38.44c-7.852-1.832-14.365-7.15-17.808-14.241z" fill="#fed402"/><g><circle cx="181.5" cy="75" fill="#acacac" r="26.5"/></g><g><g><path d="m85 190.053v-32.166c0-6.571 5.376-11.947 11.947-11.947 6.571 0 11.947 5.376 11.947 11.947v32.166c0 6.571-5.376 11.947-11.947 11.947-6.571 0-11.947-5.376-11.947-11.947z" fill="#fed402"/></g><g><path d="m108.895 173.97v-15.791c0-5.796-4.009-10.98-9.709-12.032-7.543-1.392-14.186 4.436-14.186 11.74v16.083z" fill="#60b7ff"/></g></g><path d="m203.677 60.5c2.73 4.167 4.323 9.146 4.323 14.5 0 3.349-.628 6.55-1.761 9.5h63.761l18.113-24z" fill="#fed402"/><path d="m375 75c0-14.635 11.865-26.5 26.5-26.5.168 0 .333.01.5.013v-7.013c0-5.523-4.477-10-10-10h-57.094c-15.685 0-30.461 7.36-39.91 19.88l-24.996 33.12h106.761c-1.133-2.95-1.761-6.151-1.761-9.5z" fill="#9c9c9c"/><g><path d="m364.906 31.5h-30c-15.685 0-30.461 7.36-39.91 19.88l-24.996 33.12h30l24.996-33.12c9.449-12.52 24.225-19.88 39.91-19.88z" fill="#838383"/></g><path d="m401.5 192.5c7.277 0 14.209 1.539 20.5 4.292v-105.001c-4.86 5.926-12.238 9.709-20.5 9.709s-15.64-3.782-20.5-9.709v104.992c6.29-2.752 13.224-4.283 20.5-4.283z" fill="#9c9c9c"/><path d="m401 192.512v-91.024c-8.059-.15-15.239-3.89-20-9.696v104.992c6.145-2.69 12.907-4.204 20-4.272z" fill="#838383"/><g><path d="m376.452 241.902v17.227h8.681c2.997 0 5.426 2.429 5.426 5.426v87.897h62.441v-108.452c0-28.325-23.175-51.5-51.5-51.5-25.77 0-47.271 19.185-50.941 43.976h20.467c2.997 0 5.426 2.43 5.426 5.426z" fill="#fed402"/></g><g><path d="m371.026 236.476c2.997 0 5.426 2.429 5.426 5.426v17.227h3.548v-15.129c0-23.112 15.432-42.79 36.5-49.252-4.751-1.457-9.787-2.248-15-2.248-25.77 0-47.271 19.185-50.941 43.976z" fill="#fac600"/></g><g><path d="m376.452 259.129v-17.227c0-2.997-2.429-5.426-5.426-5.426h-47.746c-2.997 0-5.426 2.429-5.426 5.426v17.227z" fill="#60b7ff"/><path d="m390.559 352.452v-87.897c0-2.997-2.429-5.426-5.426-5.426h-75.961c-2.997 0-5.426 2.429-5.426 5.426v87.897z" fill="#d8ecfe"/><g><path d="m303.747 328.714h32.81c1.657 0 3-1.343 3-3v-39.576c0-1.657-1.343-3-3-3h-32.81z" fill="#60b7ff"/></g></g><g><path d="m252.745 259.129v-17.227c0-2.997-2.429-5.426-5.426-5.426h-47.747c-2.997 0-5.426 2.429-5.426 5.426v17.227z" fill="#60b7ff"/><path d="m266.852 352.452v-87.897c0-2.997-2.429-5.426-5.426-5.426h-75.961c-2.997 0-5.426 2.429-5.426 5.426v87.897z" fill="#d8ecfe"/><g><path d="m180.039 328.714h32.81c1.657 0 3-1.343 3-3v-39.576c0-1.657-1.343-3-3-3h-32.81z" fill="#fe646f"/></g></g><g><path d="m129.037 259.129v-17.227c0-2.997-2.429-5.426-5.426-5.426h-47.746c-2.997 0-5.426 2.429-5.426 5.426v17.227z" fill="#60b7ff"/><path d="m143.144 352.452v-87.897c0-2.997-2.429-5.426-5.426-5.426h-75.96c-2.997 0-5.426 2.429-5.426 5.426v87.897z" fill="#d8ecfe"/><g><path d="m56.332 328.714h32.81c1.657 0 3-1.343 3-3v-39.576c0-1.657-1.343-3-3-3h-32.81z" fill="#60b7ff"/></g></g><path d="m45.48 428.413c-.729 0-1.451-.025-2.17-.066v47.153c0 2.761 2.239 5 5 5h412.125c2.761 0 5-2.239 5-5v-47.087z" fill="#fed402"/><path d="m83.31 475.5v-47.087h-37.83c-.729 0-1.451-.025-2.17-.066v47.153c0 2.761 2.239 5 5 5h40c-2.761 0-5-2.239-5-5z" fill="#fac600"/><path d="m348 428.413h68v52.087h-68z" fill="#fe646f"/><path d="m348 428.413h20v52.087h-20z" fill="#fd4755"/><g><path d="m466.52 428.413h-421.04c-20.976 0-37.98-17.004-37.98-37.98 0-20.976 17.004-37.98 37.98-37.98h421.04c20.976 0 37.98 17.004 37.98 37.98 0 20.975-17.004 37.98-37.98 37.98z" fill="#acacac"/></g><g><path d="m37.5 390.432c0-20.976 17.004-37.98 37.98-37.98h-30c-20.976 0-37.98 17.004-37.98 37.98 0 20.976 17.004 37.98 37.98 37.98h30c-20.976.001-37.98-17.004-37.98-37.98z" fill="#9c9c9c"/></g><g><g><circle cx="47.108" cy="390.432" fill="#fff" r="13"/></g><g><circle cx="464.892" cy="390.432" fill="#fff" r="13"/></g></g><g><g><circle cx="401.5" cy="75" fill="#fed402" r="26.5"/></g><g><path d="m395 75c0-11.096 6.823-20.594 16.5-24.542-3.086-1.259-6.461-1.958-10-1.958-14.635 0-26.5 11.865-26.5 26.5s11.865 26.5 26.5 26.5c3.539 0 6.914-.699 10-1.958-9.677-3.948-16.5-13.446-16.5-24.542z" fill="#fac600"/></g></g><g><g><circle cx="181.5" cy="75" fill="#acacac" r="26.5"/></g><g><path d="m175 75c0-11.096 6.823-20.594 16.5-24.542-3.086-1.259-6.461-1.958-10-1.958-14.635 0-26.5 11.865-26.5 26.5s11.865 26.5 26.5 26.5c3.539 0 6.914-.699 10-1.958-9.677-3.948-16.5-13.446-16.5-24.542z" fill="#9c9c9c"/></g></g><g><path d="m465.679 344.952h-5.179v-100.952c0-22.406-12.556-41.933-31-51.919v-30.767c0-4.107-3.165-7.688-7.27-7.811-4.247-.127-7.73 3.278-7.73 7.497v25.461c-4.186-.945-8.533-1.461-13-1.461s-8.815.51-13 1.455v-80.043c4.007 1.665 8.397 2.588 13 2.588s8.993-.924 13-2.588v18.274c0 4.107 3.165 7.688 7.27 7.811 4.247.127 7.73-3.278 7.73-7.497v-30.743c3.78-5.479 6-12.112 6-19.257 0-15.992-11.101-29.433-26-33.041v-.459c0-9.665-7.835-17.5-17.5-17.5h-57.094c-18.038 0-35.03 8.464-45.896 22.862l-4.632 6.138h-76.985c-6.989-8.213-17.799-13.079-29.659-11.796-14.999 1.623-27.288 13.231-29.761 28.113-.897 5.397-.48 10.597.941 15.369l-20.261 20.261c-1.551-.694-3.313-.864-5.005-.411l-31.229 8.368c-2.588.693-4.609 2.715-5.303 5.303l-6.157 22.979c-1.473 5.496-2.627 11.072-3.458 16.701v31.689c0 10.531 8.174 19.513 18.698 19.91 11.064.418 20.197-8.461 20.197-19.433v-10.069l25.63-6.868c2.588-.693 4.609-2.715 5.303-5.303l8.368-31.229c.453-1.693.284-3.455-.41-5.005l22.754-22.754c1.138.116 2.293.175 3.461.175 12.557 0 23.538-6.848 29.426-17h161.148c.448.772.921 1.526 1.426 2.257v97.834c-14.16 7.675-24.84 20.974-29.033 36.885h-21.187c-7.139 0-12.926 5.787-12.926 12.926v9.727h-1.181c-7.139 0-12.926 5.787-12.926 12.926v80.397h-21.896v-80.397c0-7.139-5.787-12.926-12.926-12.926h-1.182v-9.727c0-7.139-5.787-12.926-12.926-12.926h-47.746c-7.139 0-12.926 5.787-12.926 12.926v9.727h-1.182c-7.139 0-12.926 5.787-12.926 12.926v80.397h-21.895v-19.638c0-4.107-3.165-7.688-7.27-7.811-4.247-.127-7.73 3.278-7.73 7.497v19.952h-71.812v-8.737h25.31c5.799 0 10.5-4.701 10.5-10.5v-39.577c0-5.799-4.701-10.5-10.5-10.5h-25.31v-9.009h71.812v22.057c0 4.107 3.165 7.688 7.27 7.811 4.247.127 7.73-3.278 7.73-7.497v-24.445c0-7.139-5.787-12.926-12.926-12.926h-1.182v-9.727c0-7.139-5.787-12.926-12.926-12.926h-47.746c-7.139 0-12.926 5.787-12.926 12.926v9.727h-1.181c-7.139 0-12.926 5.787-12.926 12.926v80.397h-2.576c-24.763 0-45.572 19.476-46.239 44.231-.602 22.308 14.956 41.154 35.793 45.685v40.632c0 6.904 5.596 12.5 12.5 12.5h412.125c6.904 0 12.5-5.596 12.5-12.5v-40.048c22.017-3.123 39.015-22.063 39.065-44.917.056-25.074-21.247-45.583-46.32-45.583zm-364.284-154.899c0 2.411-2.036 4.447-4.447 4.447s-4.447-2.036-4.447-4.447v-8.583h8.895v8.583zm0-23.583h-8.895v-8.583c0-2.411 2.036-4.447 4.447-4.447s4.447 2.036 4.447 4.447v8.583zm32.564-6.722-17.564 4.707v-6.568c0-10.632-8.578-19.286-19.175-19.433l3.264-12.181 12.108-3.245c-.369 1.189-.564 2.44-.564 3.721 0 3.339 1.301 6.479 3.661 8.84l8.956 8.955c2.437 2.436 5.636 3.652 8.837 3.652 1.258 0 2.514-.195 3.726-.571zm-.478-27.58-5.418-5.419 28.583-28.582c1.75 1.876 3.703 3.559 5.834 5.002zm48.019-38.168c-10.477 0-19-8.523-19-19s8.523-19 19-19 19 8.523 19 19-8.523 19-19 19zm84.765-17h-50.828c.039-.662.064-1.328.064-2 0-2.399-.253-4.74-.728-7h58.285zm-188.327 166.977h43.599v7.652h-43.599zm-14.106 46.661h20.81v30.577h-20.81zm356.668-215.638c0 10.477-8.523 19-19 19s-19-8.523-19-19 8.523-19 19-19 19 8.523 19 19zm-53 0c0 .672.025 1.338.064 2h-82.507l15.926-21.102c7.986-10.581 20.667-16.898 33.923-16.898h57.094c1.379 0 2.5 1.121 2.5 2.5v.228c-15.401 3.236-27 16.923-27 33.272zm34 125c24.262 0 44 19.738 44 44v100.952h-47.441v-80.397c0-7.127-5.799-12.926-12.926-12.926h-1.181v-9.727c0-7.127-5.799-12.926-12.926-12.926h-10.871c6.152-16.884 22.358-28.976 41.345-28.976zm-76.146 43.977h43.599v7.652h-43.599zm-14.107 46.661h20.81v30.577h-20.81zm0 45.577h25.31c5.79 0 10.5-4.71 10.5-10.5v-39.577c0-5.79-4.71-10.5-10.5-10.5h-25.31v-9.009h71.812v78.323h-71.812zm-109.601-92.238h43.598v7.652h-43.598zm-14.107 46.661h20.811v30.577h-20.811zm0 45.577h25.311c5.79 0 10.5-4.71 10.5-10.5v-39.577c0-5.79-4.71-10.5-10.5-10.5h-25.311v-9.009h71.813v78.323h-71.813zm152.961 136.785h-289.69v-37.087h289.69zm68 0h-53v-37.087h53zm49.435 0h-34.435v-37.087h34.435zm8.585-52.087h-421.04c-16.807 0-30.48-13.674-30.48-30.48s13.674-30.48 30.48-30.48h421.04c16.807 0 30.48 13.674 30.48 30.48s-13.674 30.48-30.48 30.48z"/><path d="m321 382.933h-254.832c-3.002-7.601-10.405-13-19.06-13-11.304 0-20.5 9.196-20.5 20.5s9.196 20.5 20.5 20.5c8.655 0 16.057-5.399 19.06-13h254.832c4.143 0 7.5-3.357 7.5-7.5s-3.357-7.5-7.5-7.5zm-273.892 13c-3.033 0-5.5-2.467-5.5-5.5s2.467-5.5 5.5-5.5 5.5 2.467 5.5 5.5-2.466 5.5-5.5 5.5z"/><path d="m464.892 369.933c-8.655 0-16.057 5.399-19.06 13h-88.832c-4.143 0-7.5 3.357-7.5 7.5s3.357 7.5 7.5 7.5h88.832c3.002 7.601 10.405 13 19.06 13 11.304 0 20.5-9.196 20.5-20.5s-9.197-20.5-20.5-20.5zm0 26c-3.033 0-5.5-2.467-5.5-5.5s2.467-5.5 5.5-5.5 5.5 2.467 5.5 5.5-2.467 5.5-5.5 5.5z"/><circle cx="401.5" cy="75" r="7.5"/><circle cx="181.5" cy="75" r="7.5"/><path d="m76 460h34c4.143 0 7.5-3.357 7.5-7.5s-3.357-7.5-7.5-7.5h-34c-4.143 0-7.5 3.357-7.5 7.5s3.357 7.5 7.5 7.5z"/><circle cx="426.5" cy="301.5" r="7.5"/><circle cx="426.5" cy="325.5" r="7.5"/></g></g></svg>